<?xml version="1.0" encoding="UTF-8" standalone="no" ?>
<!DOCTYPE svg PUBLIC "-//W3C//DTD SVG 1.1//EN" "http://www.w3.org/Graphics/SVG/1.1/DTD/svg11.dtd">
<svg xmlns="http://www.w3.org/2000/svg" xmlns:xlink="http://www.w3.org/1999/xlink" version="1.1" width="1080" height="1580" viewBox="0 0 1080 1580" xml:space="preserve">
<defs>
</defs>
<rect x="0" y="0" width="100%" height="100%" fill="transparent"></rect>
<g transform="matrix(1 0 0 1 540 790)" id="58424ee7-96bd-434d-ad4a-2d70f6af1571"  >
<rect style="stroke: none; stroke-width: 1; stroke-dasharray: none; stroke-linecap: butt; stroke-dashoffset: 0; stroke-linejoin: miter; stroke-miterlimit: 4; fill: rgb(255,255,255); fill-rule: nonzero; opacity: 1; visibility: hidden;" vector-effect="non-scaling-stroke"  x="-540" y="-790" rx="0" ry="0" width="1080" height="1580" />
</g>
<g transform="matrix(Infinity NaN NaN Infinity 0 0)" id="87948a67-d428-4f80-8066-59f20abdcba1"  >
</g>
<g transform="matrix(2.17 0 0 2.59 540 790)"  >
<g style="" vector-effect="non-scaling-stroke"   >
		<g transform="matrix(1 0 0 1 0 0)"  >
<path style="stroke: none; stroke-width: 1; stroke-dasharray: none; stroke-linecap: butt; stroke-dashoffset: 0; stroke-linejoin: miter; stroke-miterlimit: 4; fill: rgb(66,66,66); fill-rule: nonzero; opacity: 1;" vector-effect="non-scaling-stroke"  transform=" translate(-255, -255)" d="M 488.544 61.877 L 461.597 61.877 L 461.597 34.93 C 461.597 29.541 458.00399999999996 25.948 452.615 25.948 L 253.855 25.948 C 249.84 10.496 235.733 -1 219.07 -1 C 202.40699999999998 -1 188.29999999999998 10.496 184.285 25.947 L 21.456 25.947 C 16.067 25.947 12.474 29.54 12.474 34.929 L 12.474 466.087 C 12.474 471.476 16.067 475.06899999999996 21.456 475.06899999999996 L 48.403 475.06899999999996 L 48.403 502.01599999999996 C 48.403 507.405 51.995999999999995 510.99799999999993 57.385 510.99799999999993 L 488.543 510.99799999999993 C 493.932 510.99799999999993 497.525 507.4049999999999 497.525 502.01599999999996 L 497.525 70.86 C 497.526 65.47 493.933 61.877 488.544 61.877 z M 219.07 16.965 C 225.68099999999998 16.965 231.47299999999998 20.593 234.59199999999998 25.947 L 203.54799999999997 25.947 C 206.668 20.593 212.46 16.965 219.07 16.965 z M 30.439 43.912 L 183.14 43.912 L 183.14 88.824 C 183.14 108.585 199.308 124.75399999999999 219.07 124.75399999999999 C 238.832 124.75399999999999 255 108.586 255 88.825 C 255 83.435 251.407 79.843 246.018 79.843 C 240.629 79.843 237.036 83.436 237.036 88.825 C 237.036 98.706 228.952 106.79 219.071 106.79 C 209.19 106.79 201.106 98.706 201.106 88.825 L 201.106 43.912 L 443.632 43.912 L 443.632 70.86 L 443.632 457.106 L 57.386 457.106 L 30.439 457.106 L 30.439 43.912 z M 479.561 493.035 L 66.368 493.035 L 66.368 475.07 L 452.614 475.07 C 458.003 475.07 461.596 471.477 461.596 466.08799999999997 L 461.596 79.842 L 479.561 79.842 L 479.561 493.035 z" stroke-linecap="round" />
</g>
		<g transform="matrix(1 0 0 1 89.83 -76.35)"  >
<path style="stroke: none; stroke-width: 1; stroke-dasharray: none; stroke-linecap: butt; stroke-dashoffset: 0; stroke-linejoin: miter; stroke-miterlimit: 4; fill: rgb(66,66,66); fill-rule: nonzero; opacity: 1;" vector-effect="non-scaling-stroke"  transform=" translate(-344.83, -178.65)" d="M 326.86 187.632 L 362.79 187.632 C 368.17900000000003 187.632 371.77200000000005 184.03900000000002 371.77200000000005 178.65 C 371.77200000000005 173.261 368.17900000000003 169.668 362.7900000000001 169.668 L 326.86000000000007 169.668 C 321.47100000000006 169.668 317.87800000000004 173.261 317.87800000000004 178.65 C 317.87800000000004 184.03900000000002 321.47 187.632 326.86 187.632 z" stroke-linecap="round" />
</g>
		<g transform="matrix(1 0 0 1 4.49 -76.35)"  >
<path style="stroke: none; stroke-width: 1; stroke-dasharray: none; stroke-linecap: butt; stroke-dashoffset: 0; stroke-linejoin: miter; stroke-miterlimit: 4; fill: rgb(66,66,66); fill-rule: nonzero; opacity: 1;" vector-effect="non-scaling-stroke"  transform=" translate(-259.49, -178.65)" d="M 228.053 187.632 L 290.93 187.632 C 296.319 187.632 299.91200000000003 184.03900000000002 299.91200000000003 178.65 C 299.91200000000003 173.261 296.319 169.668 290.93000000000006 169.668 L 228.05300000000005 169.668 C 222.66400000000004 169.668 219.07100000000005 173.261 219.07100000000005 178.65 C 219.07100000000005 184.03900000000002 222.663 187.632 228.053 187.632 z" stroke-linecap="round" />
</g>
		<g transform="matrix(1 0 0 1 -103.3 -76.35)"  >
<path style="stroke: none; stroke-width: 1; stroke-dasharray: none; stroke-linecap: butt; stroke-dashoffset: 0; stroke-linejoin: miter; stroke-miterlimit: 4; fill: rgb(66,66,66); fill-rule: nonzero; opacity: 1;" vector-effect="non-scaling-stroke"  transform=" translate(-151.7, -178.65)" d="M 111.281 187.632 L 192.123 187.632 C 197.512 187.632 201.105 184.03900000000002 201.105 178.65 C 201.105 173.261 197.512 169.668 192.123 169.668 L 111.28099999999999 169.668 C 105.892 169.668 102.29899999999999 173.261 102.29899999999999 178.65 C 102.29899999999999 184.03900000000002 105.891 187.632 111.281 187.632 z" stroke-linecap="round" />
</g>
		<g transform="matrix(1 0 0 1 71.86 -22.46)"  >
<path style="stroke: none; stroke-width: 1; stroke-dasharray: none; stroke-linecap: butt; stroke-dashoffset: 0; stroke-linejoin: miter; stroke-miterlimit: 4; fill: rgb(66,66,66); fill-rule: nonzero; opacity: 1;" vector-effect="non-scaling-stroke"  transform=" translate(-326.86, -232.54)" d="M 362.789 223.561 L 290.929 223.561 C 285.53999999999996 223.561 281.947 227.154 281.947 232.543 C 281.947 237.93200000000002 285.54 241.525 290.929 241.525 L 362.789 241.525 C 368.178 241.525 371.77099999999996 237.93200000000002 371.77099999999996 232.543 C 371.772 227.154 368.179 223.561 362.789 223.561 z" stroke-linecap="round" />
</g>
		<g transform="matrix(1 0 0 1 -49.4 -22.46)"  >
<path style="stroke: none; stroke-width: 1; stroke-dasharray: none; stroke-linecap: butt; stroke-dashoffset: 0; stroke-linejoin: miter; stroke-miterlimit: 4; fill: rgb(66,66,66); fill-rule: nonzero; opacity: 1;" vector-effect="non-scaling-stroke"  transform=" translate(-205.6, -232.54)" d="M 237.035 223.561 L 174.158 223.561 C 168.76899999999998 223.561 165.176 227.154 165.176 232.543 C 165.176 237.93200000000002 168.76899999999998 241.525 174.158 241.525 L 237.035 241.525 C 242.424 241.525 246.017 237.93200000000002 246.017 232.543 C 246.018 227.154 242.425 223.561 237.035 223.561 z" stroke-linecap="round" />
</g>
		<g transform="matrix(1 0 0 1 -130.25 -22.45)"  >
<path style="stroke: none; stroke-width: 1; stroke-dasharray: none; stroke-linecap: butt; stroke-dashoffset: 0; stroke-linejoin: miter; stroke-miterlimit: 4; fill: rgb(66,66,66); fill-rule: nonzero; opacity: 1;" vector-effect="non-scaling-stroke"  transform=" translate(-124.75, -232.54)" d="M 111.281 241.526 L 138.228 241.526 C 143.61700000000002 241.526 147.21 237.93300000000002 147.21 232.544 C 147.21 227.15400000000002 143.61700000000002 223.562 138.228 223.562 L 111.281 223.562 C 105.89200000000001 223.562 102.299 227.155 102.299 232.544 C 102.298 237.933 105.891 241.526 111.281 241.526 z" stroke-linecap="round" />
</g>
		<g transform="matrix(1 0 0 1 94.32 31.44)"  >
<path style="stroke: none; stroke-width: 1; stroke-dasharray: none; stroke-linecap: butt; stroke-dashoffset: 0; stroke-linejoin: miter; stroke-miterlimit: 4; fill: rgb(66,66,66); fill-rule: nonzero; opacity: 1;" vector-effect="non-scaling-stroke"  transform=" translate(-349.32, -286.44)" d="M 362.789 277.456 L 335.842 277.456 C 330.453 277.456 326.86 281.04900000000004 326.86 286.438 C 326.86 291.82699999999994 330.45300000000003 295.41999999999996 335.842 295.41999999999996 L 362.789 295.41999999999996 C 368.178 295.41999999999996 371.77099999999996 291.82699999999994 371.77099999999996 286.438 C 371.77099999999996 281.04900000000004 368.179 277.456 362.789 277.456 z" stroke-linecap="round" />
</g>
		<g transform="matrix(1 0 0 1 0 31.44)"  >
<path style="stroke: none; stroke-width: 1; stroke-dasharray: none; stroke-linecap: butt; stroke-dashoffset: 0; stroke-linejoin: miter; stroke-miterlimit: 4; fill: rgb(66,66,66); fill-rule: nonzero; opacity: 1;" vector-effect="non-scaling-stroke"  transform=" translate(-255, -286.44)" d="M 201.105 286.439 C 201.105 291.82800000000003 204.69799999999998 295.42100000000005 210.087 295.42100000000005 L 299.912 295.42100000000005 C 305.301 295.42100000000005 308.894 291.82800000000003 308.894 286.4390000000001 C 308.894 281.0500000000001 305.301 277.4570000000001 299.91200000000003 277.4570000000001 L 210.08700000000005 277.4570000000001 C 204.698 277.456 201.105 281.049 201.105 286.439 z" stroke-linecap="round" />
</g>
		<g transform="matrix(1 0 0 1 -121.26 31.44)"  >
<path style="stroke: none; stroke-width: 1; stroke-dasharray: none; stroke-linecap: butt; stroke-dashoffset: 0; stroke-linejoin: miter; stroke-miterlimit: 4; fill: rgb(66,66,66); fill-rule: nonzero; opacity: 1;" vector-effect="non-scaling-stroke"  transform=" translate(-133.74, -286.44)" d="M 111.281 295.421 L 156.193 295.421 C 161.58200000000002 295.421 165.175 291.828 165.175 286.43899999999996 C 165.175 281.04999999999995 161.58200000000002 277.457 156.193 277.457 L 111.281 277.457 C 105.89200000000001 277.457 102.299 281.05 102.299 286.43899999999996 C 102.299 291.8279999999999 105.891 295.421 111.281 295.421 z" stroke-linecap="round" />
</g>
		<g transform="matrix(1 0 0 1 58.39 85.33)"  >
<path style="stroke: none; stroke-width: 1; stroke-dasharray: none; stroke-linecap: butt; stroke-dashoffset: 0; stroke-linejoin: miter; stroke-miterlimit: 4; fill: rgb(66,66,66); fill-rule: nonzero; opacity: 1;" vector-effect="non-scaling-stroke"  transform=" translate(-313.39, -340.33)" d="M 362.789 331.351 L 263.98199999999997 331.351 C 258.592 331.351 254.99999999999997 334.944 254.99999999999997 340.33299999999997 C 254.99999999999997 345.7219999999999 258.59299999999996 349.31499999999994 263.98199999999997 349.31499999999994 L 362.789 349.31499999999994 C 368.178 349.31499999999994 371.77099999999996 345.7219999999999 371.77099999999996 340.33299999999997 C 371.77099999999996 334.944 368.179 331.351 362.789 331.351 z" stroke-linecap="round" />
</g>
		<g transform="matrix(1 0 0 1 -62.88 85.33)"  >
<path style="stroke: none; stroke-width: 1; stroke-dasharray: none; stroke-linecap: butt; stroke-dashoffset: 0; stroke-linejoin: miter; stroke-miterlimit: 4; fill: rgb(66,66,66); fill-rule: nonzero; opacity: 1;" vector-effect="non-scaling-stroke"  transform=" translate(-192.12, -340.33)" d="M 210.088 331.351 L 174.158 331.351 C 168.76899999999998 331.351 165.176 334.944 165.176 340.33299999999997 C 165.176 345.7219999999999 168.76899999999998 349.31499999999994 174.158 349.31499999999994 L 210.088 349.31499999999994 C 215.477 349.31499999999994 219.07 345.7219999999999 219.07 340.33299999999997 C 219.07 334.944 215.477 331.351 210.088 331.351 z" stroke-linecap="round" />
</g>
		<g transform="matrix(1 0 0 1 -130.25 85.34)"  >
<path style="stroke: none; stroke-width: 1; stroke-dasharray: none; stroke-linecap: butt; stroke-dashoffset: 0; stroke-linejoin: miter; stroke-miterlimit: 4; fill: rgb(66,66,66); fill-rule: nonzero; opacity: 1;" vector-effect="non-scaling-stroke"  transform=" translate(-124.75, -340.33)" d="M 111.281 349.316 L 138.228 349.316 C 143.61700000000002 349.316 147.21 345.72299999999996 147.21 340.33399999999995 C 147.21 334.94499999999994 143.61700000000002 331.352 138.228 331.352 L 111.281 331.352 C 105.89200000000001 331.352 102.299 334.945 102.299 340.33399999999995 C 102.299 345.7229999999999 105.891 349.316 111.281 349.316 z" stroke-linecap="round" />
</g>
</g>
</g>
</svg>
